<?xml version="1.0" encoding="UTF-8"?>
<svg width="406px" height="405px" viewBox="0 0 406 405" version="1.1" xmlns="http://www.w3.org/2000/svg" xmlns:xlink="http://www.w3.org/1999/xlink">
    <title>mdpi/linguax-web</title>
    <g id="Smallbox" stroke="none" stroke-width="1" fill="none" fill-rule="evenodd">
        <g id="linguax-web" transform="translate(-0.000000, 0.000000)">
            <rect id="矩形" x="1.13686838e-13" y="0" width="405" height="405"></rect>
            <path d="M268.784716,103.733448 L215.799545,103.733448 L215.799545,69.6533965 C215.799545,62.0800515 221.476527,54.506707 230.938165,54.506707 L259.323078,54.506707 C266.892388,54.506707 274.461698,48.8266985 274.461698,39.3600172 C274.461698,29.8933359 266.892388,28 259.323078,28 L230.938165,28 C208.230234,28 189.306959,46.9333621 189.306959,69.6533965 L189.306959,103.733448 L136.321788,103.733448 C60.6286861,103.733448 0.074204947,166.213542 0.074204947,240.053654 C0.074204947,315.787102 62.5210138,376.37386 136.321788,376.37386 L268.784716,376.37386 C344.477817,376.37386 405.032298,313.893766 405.032298,240.053654 C406.924626,164.320206 344.477817,103.733448 268.784716,103.733448 Z" id="linguax-logo" fill="#FF7F50" fill-rule="nonzero"></path>
        </g>
    </g>
</svg>