<svg xmlns="http://www.w3.org/2000/svg" viewBox="0 0 560 340" role="img" aria-labelledby="gpx-t gpx-d">
  <title id="gpx-t">G Pro X Superlight 1 / 2 — LinguaX slot layout</title>
  <desc id="gpx-d">Top-down view of the G Pro X Superlight with the three slots LinguaX can map today via its universal HID engine: S1 and S2 side buttons and M wheel click. The underside DPI button stays firmware-controlled. Legend on the right.</desc>
  <style>
    .outline{fill:none;stroke:currentColor;stroke-width:2;}
    .split{stroke:currentColor;stroke-width:1;stroke-dasharray:4 4;opacity:.3;fill:none;}
    .pill{fill:currentColor;opacity:.12;stroke:currentColor;stroke-width:1.2;}
    .pt{fill:currentColor;font:600 11px -apple-system,system-ui,sans-serif;text-anchor:middle;}
    .lg-code{fill:currentColor;font:600 12px ui-monospace,SFMono-Regular,Menlo,monospace;}
    .lg-name{fill:currentColor;font:400 12.5px -apple-system,system-ui,sans-serif;opacity:.85;}
    .cap{fill:currentColor;font:italic 11.5px -apple-system,system-ui,sans-serif;opacity:.55;}
  </style>

  <!-- Ambidextrous esports shell -->
  <path class="outline" d="M145 24
    C 106 24, 80 54, 78 112
    C 77 142, 82 168, 82 196
    C 82 252, 108 298, 145 298
    C 182 298, 208 252, 208 196
    C 208 168, 213 142, 212 112
    C 210 54, 184 24, 145 24 Z"/>

  <path class="split" d="M145 24 L 145 108"/>
  <text class="pt" x="110" y="64" opacity=".45">L</text>
  <text class="pt" x="180" y="64" opacity=".45">R</text>

  <!-- M wheel -->
  <rect class="pill" x="133" y="50" width="24" height="50" rx="11"/>
  <text class="pt" x="145" y="79">M</text>

  <!-- S1/S2 left edge -->
  <rect class="pill" x="86" y="128" width="26" height="18" rx="9"/>
  <text class="pt" x="99" y="141">S2</text>
  <rect class="pill" x="86" y="154" width="26" height="18" rx="9"/>
  <text class="pt" x="99" y="167">S1</text>

  <text class="cap" x="145" y="324" text-anchor="middle">top-down · front at top · side buttons on the left</text>

  <!-- Legend -->
  <g transform="translate(290,56)">
    <text class="lg-code" x="0" y="0">S1 / S2</text><text class="lg-name" x="70" y="0">side buttons — Back / Forward by default</text>
    <text class="lg-code" x="0" y="30">M</text><text class="lg-name" x="70" y="30">wheel click</text>
    <text class="lg-code" x="0" y="60">L / R</text><text class="lg-name" x="70" y="60">main clicks — handled by macOS</text>
    <text class="cap" x="0" y="100">3 mappable slots via the universal HID engine</text>
    <text class="cap" x="0" y="122">underside DPI button stays firmware-controlled</text>
    <text class="cap" x="0" y="144">no thumb button · no scroll-mode key · no wheel tilt</text>
  </g>
</svg>
