<svg xmlns="http://www.w3.org/2000/svg" viewBox="0 0 640 350" role="img" aria-labelledby="gpx-t gpx-d">
  <title id="gpx-t">G Pro X Superlight 1 / 2 — LinguaX slot layout</title>
  <desc id="gpx-d">Top-down wireframe of the ambidextrous G Pro X Superlight. Front at top. Slots LinguaX maps today: S1 and S2 side buttons on the left edge and M wheel click. The underside DPI button stays firmware-controlled. Legend on the right.</desc>
  <style>
    .outline{fill:none;stroke:currentColor;stroke-width:2;stroke-linejoin:round;}
    .split{stroke:currentColor;stroke-width:1;stroke-dasharray:4 4;opacity:.3;fill:none;}
    .pill{fill:currentColor;opacity:.12;stroke:currentColor;stroke-width:1.2;}
    .pt{fill:currentColor;font:600 11px -apple-system,system-ui,sans-serif;text-anchor:middle;}
    .ghost{fill:currentColor;font:600 11px -apple-system,system-ui,sans-serif;text-anchor:middle;opacity:.4;}
    .lg-code{fill:currentColor;font:600 12px ui-monospace,SFMono-Regular,Menlo,monospace;}
    .lg-name{fill:currentColor;font:400 12.5px -apple-system,system-ui,sans-serif;opacity:.85;}
    .cap{fill:currentColor;font:italic 11.5px -apple-system,system-ui,sans-serif;opacity:.55;}
  </style>

  <!-- Ambidextrous esports shell: gentle waist at mid-body -->
  <path class="outline" d="M145 32
    C 182 32, 206 60, 209 112
    C 211 142, 204 164, 204 192
    C 204 246, 186 306, 145 306
    C 104 306, 86 246, 86 192
    C 86 164, 79 142, 81 112
    C 84 60, 108 32, 145 32 Z"/>

  <path class="split" d="M145 32 L 145 114"/>
  <text class="ghost" x="112" y="70">L</text>
  <text class="ghost" x="178" y="70">R</text>

  <!-- Wheel M -->
  <rect class="pill" x="133" y="56" width="24" height="48" rx="11"/>
  <text class="pt" x="145" y="84">M</text>

  <!-- S1 / S2 left edge -->
  <rect class="pill" x="88" y="132" width="26" height="18" rx="9"/>
  <text class="pt" x="101" y="145">S2</text>
  <rect class="pill" x="88" y="158" width="26" height="18" rx="9"/>
  <text class="pt" x="101" y="171">S1</text>

  <text class="cap" x="145" y="336" text-anchor="middle">top-down · front at top · side buttons on the left</text>

  <!-- Legend -->
  <g transform="translate(300,72)">
    <text class="lg-code" x="0" y="0">S1 / S2</text><text class="lg-name" x="82" y="0">side buttons — Back / Forward</text>
    <text class="lg-code" x="0" y="30">M</text><text class="lg-name" x="82" y="30">wheel click</text>
    <text class="lg-code" x="0" y="60">L / R</text><text class="lg-name" x="82" y="60">main clicks (macOS)</text>
    <text class="cap" x="0" y="100">3 mappable slots · universal HID engine</text>
    <text class="cap" x="0" y="122">underside DPI button is firmware-controlled</text>
    <text class="cap" x="0" y="144">no thumb button · no scroll-mode key · no tilt</text>
  </g>
</svg>
