<svg xmlns="http://www.w3.org/2000/svg" viewBox="0 0 640 350" role="img" aria-labelledby="mxa-t mxa-d">
  <title id="mxa-t">MX Anywhere 3 / 3S — LinguaX slot layout</title>
  <desc id="mxa-d">Top-down wireframe of the compact MX Anywhere. Front at top. Slots: S1 and S2 side buttons on the left edge, M wheel click, SM scroll-mode key behind the wheel. No thumb button and no wheel tilt on this model. Legend on the right.</desc>
  <style>
    .outline{fill:none;stroke:currentColor;stroke-width:2;stroke-linejoin:round;}
    .split{stroke:currentColor;stroke-width:1;stroke-dasharray:4 4;opacity:.3;fill:none;}
    .pill{fill:currentColor;opacity:.12;stroke:currentColor;stroke-width:1.2;}
    .pt{fill:currentColor;font:600 11px -apple-system,system-ui,sans-serif;text-anchor:middle;}
    .ghost{fill:currentColor;font:600 11px -apple-system,system-ui,sans-serif;text-anchor:middle;opacity:.4;}
    .lg-code{fill:currentColor;font:600 12px ui-monospace,SFMono-Regular,Menlo,monospace;}
    .lg-name{fill:currentColor;font:400 12.5px -apple-system,system-ui,sans-serif;opacity:.85;}
    .cap{fill:currentColor;font:italic 11.5px -apple-system,system-ui,sans-serif;opacity:.55;}
  </style>

  <!-- Compact symmetric low-profile body -->
  <path class="outline" d="M145 34
    C 184 34, 210 64, 213 118
    C 215 168, 212 232, 196 272
    C 183 302, 165 312, 145 312
    C 125 312, 107 302, 94 272
    C 78 232, 75 168, 77 118
    C 80 64, 106 34, 145 34 Z"/>

  <path class="split" d="M145 34 L 145 118"/>
  <text class="ghost" x="112" y="72">L</text>
  <text class="ghost" x="178" y="72">R</text>

  <!-- Wheel M -->
  <rect class="pill" x="133" y="58" width="24" height="50" rx="11"/>
  <text class="pt" x="145" y="87">M</text>

  <!-- SM behind wheel -->
  <rect class="pill" x="131" y="122" width="28" height="18" rx="9"/>
  <text class="pt" x="145" y="135">SM</text>

  <!-- S1 / S2 left edge -->
  <rect class="pill" x="82" y="150" width="26" height="18" rx="9"/>
  <text class="pt" x="95" y="163">S2</text>
  <rect class="pill" x="82" y="176" width="26" height="18" rx="9"/>
  <text class="pt" x="95" y="189">S1</text>

  <text class="cap" x="145" y="338" text-anchor="middle">top-down · front at top · thumb side on the left</text>

  <!-- Legend -->
  <g transform="translate(300,72)">
    <text class="lg-code" x="0" y="0">S1 / S2</text><text class="lg-name" x="82" y="0">side buttons — Back / Forward</text>
    <text class="lg-code" x="0" y="30">M</text><text class="lg-name" x="82" y="30">wheel click</text>
    <text class="lg-code" x="0" y="60">SM</text><text class="lg-name" x="82" y="60">scroll-mode key (MagSpeed)</text>
    <text class="lg-code" x="0" y="90">L / R</text><text class="lg-name" x="82" y="90">main clicks (macOS)</text>
    <text class="cap" x="0" y="130">4 configurable slots · full HID++ recognition</text>
    <text class="cap" x="0" y="152">no thumb button · no wheel tilt on this model</text>
  </g>
</svg>
