<svg xmlns="http://www.w3.org/2000/svg" viewBox="0 0 640 350" role="img" aria-labelledby="ergo-t ergo-d">
  <title id="ergo-t">MX Ergo — LinguaX slot layout</title>
  <desc id="ergo-d">Top-down wireframe of the MX Ergo trackball. Ball on the left driven by the thumb; L, R and the wheel on the right half. Slots LinguaX maps today: S1 and S2 above the ball and M wheel click. The Precision button beside the ball stays firmware-controlled. Legend on the right.</desc>
  <style>
    .outline{fill:none;stroke:currentColor;stroke-width:2;stroke-linejoin:round;}
    .split{stroke:currentColor;stroke-width:1;stroke-dasharray:4 4;opacity:.3;fill:none;}
    .pill{fill:currentColor;opacity:.12;stroke:currentColor;stroke-width:1.2;}
    .pill-off{fill:none;stroke:currentColor;stroke-width:1.2;stroke-dasharray:3 3;opacity:.5;}
    .pt{fill:currentColor;font:600 11px -apple-system,system-ui,sans-serif;text-anchor:middle;}
    .pt-off{fill:currentColor;font:600 10px -apple-system,system-ui,sans-serif;text-anchor:middle;opacity:.55;}
    .ghost{fill:currentColor;font:600 11px -apple-system,system-ui,sans-serif;text-anchor:middle;opacity:.4;}
    .lg-code{fill:currentColor;font:600 12px ui-monospace,SFMono-Regular,Menlo,monospace;}
    .lg-name{fill:currentColor;font:400 12.5px -apple-system,system-ui,sans-serif;opacity:.85;}
    .cap{fill:currentColor;font:italic 11.5px -apple-system,system-ui,sans-serif;opacity:.55;}
  </style>

  <!-- Wide stationary body, rounded slab -->
  <path class="outline" d="M64 130
    C 66 78, 112 50, 166 48
    C 216 46, 248 68, 252 114
    L 254 224
    C 254 268, 222 292, 168 294
    C 112 296, 64 268, 60 216 Z"/>

  <!-- Trackball on the left -->
  <circle class="outline" cx="120" cy="182" r="46"/>
  <text class="ghost" x="120" y="187">ball</text>

  <!-- L / R zone on the right half -->
  <path class="split" d="M198 52 L 198 148"/>
  <text class="ghost" x="170" y="80">L</text>
  <text class="ghost" x="228" y="80">R</text>

  <!-- M wheel between L and R -->
  <rect class="pill" x="187" y="96" width="22" height="44" rx="10"/>
  <text class="pt" x="198" y="121">M</text>

  <!-- S1 / S2 above the ball -->
  <rect class="pill" x="128" y="94" width="26" height="18" rx="9"/>
  <text class="pt" x="141" y="107">S2</text>
  <rect class="pill" x="96" y="106" width="26" height="18" rx="9"/>
  <text class="pt" x="109" y="119">S1</text>

  <!-- Precision (firmware) beside the ball -->
  <rect class="pill-off" x="162" y="196" width="58" height="18" rx="9"/>
  <text class="pt-off" x="191" y="209">Precision</text>

  <text class="cap" x="157" y="334" text-anchor="middle">top-down · right-hand only · thumb drives the ball</text>

  <!-- Legend -->
  <g transform="translate(300,72)">
    <text class="lg-code" x="0" y="0">S1 / S2</text><text class="lg-name" x="82" y="0">buttons above the ball — Back / Forward</text>
    <text class="lg-code" x="0" y="30">M</text><text class="lg-name" x="82" y="30">wheel click</text>
    <text class="lg-code" x="0" y="60">L / R</text><text class="lg-name" x="82" y="60">main clicks (macOS)</text>
    <text class="cap" x="0" y="100">3 mappable slots · universal HID engine</text>
    <text class="cap" x="0" y="122">Precision (DPI) button: firmware-controlled,</text>
    <text class="cap" x="0" y="140">not yet a LinguaX slot</text>
    <text class="cap" x="0" y="162">0° / 20° tilt is a hardware hinge</text>
  </g>
</svg>
