<svg xmlns="http://www.w3.org/2000/svg" viewBox="0 0 560 340" role="img" aria-labelledby="ergo-t ergo-d">
  <title id="ergo-t">MX Ergo — LinguaX slot layout</title>
  <desc id="ergo-d">Top-down view of the MX Ergo trackball. LinguaX maps three slots today via its universal HID engine: S1 and S2 above the ball and M wheel click. The Precision button next to the ball stays firmware-controlled. Legend on the right.</desc>
  <style>
    .outline{fill:none;stroke:currentColor;stroke-width:2;}
    .split{stroke:currentColor;stroke-width:1;stroke-dasharray:4 4;opacity:.3;fill:none;}
    .pill{fill:currentColor;opacity:.12;stroke:currentColor;stroke-width:1.2;}
    .pill-off{fill:none;stroke:currentColor;stroke-width:1.2;stroke-dasharray:3 3;opacity:.5;}
    .pt{fill:currentColor;font:600 11px -apple-system,system-ui,sans-serif;text-anchor:middle;}
    .pt-off{fill:currentColor;font:600 10px -apple-system,system-ui,sans-serif;text-anchor:middle;opacity:.55;}
    .lg-code{fill:currentColor;font:600 12px ui-monospace,SFMono-Regular,Menlo,monospace;}
    .lg-name{fill:currentColor;font:400 12.5px -apple-system,system-ui,sans-serif;opacity:.85;}
    .cap{fill:currentColor;font:italic 11.5px -apple-system,system-ui,sans-serif;opacity:.55;}
  </style>

  <!-- Wide trackball body, ball on the left -->
  <path class="outline" d="M56 120
    C 56 70, 100 40, 156 38
    C 210 36, 246 58, 250 108
    L 250 232
    C 250 276, 214 298, 158 298
    C 100 298, 56 270, 56 216 Z"/>

  <!-- Trackball -->
  <circle class="outline" cx="118" cy="176" r="46"/>
  <text class="pt" x="118" y="181" opacity=".45">ball</text>

  <!-- L / R on right half -->
  <path class="split" d="M196 44 L 196 150"/>
  <text class="pt" x="176" y="86" opacity=".45">L</text>
  <text class="pt" x="222" y="86" opacity=".45">R</text>

  <!-- M wheel between L and R -->
  <rect class="pill" x="186" y="98" width="22" height="44" rx="10"/>
  <text class="pt" x="197" y="124">M</text>

  <!-- S1/S2 above the ball -->
  <rect class="pill" x="128" y="102" width="26" height="18" rx="9"/>
  <text class="pt" x="141" y="115">S2</text>
  <rect class="pill" x="98" y="112" width="26" height="18" rx="9"/>
  <text class="pt" x="111" y="125">S1</text>

  <!-- Precision (firmware) next to the ball -->
  <rect class="pill-off" x="160" y="200" width="58" height="18" rx="9"/>
  <text class="pt-off" x="189" y="213">Precision</text>

  <text class="cap" x="153" y="324" text-anchor="middle">top-down · right-hand only · thumb drives the ball</text>

  <!-- Legend -->
  <g transform="translate(296,56)">
    <text class="lg-code" x="0" y="0">S1 / S2</text><text class="lg-name" x="70" y="0">buttons above the ball — Back / Forward</text>
    <text class="lg-code" x="0" y="30">M</text><text class="lg-name" x="70" y="30">wheel click</text>
    <text class="lg-code" x="0" y="60">L / R</text><text class="lg-name" x="70" y="60">main clicks — handled by macOS</text>
    <text class="cap" x="0" y="100">3 mappable slots via the universal HID engine</text>
    <text class="cap" x="0" y="122">Precision (DPI) button: firmware-controlled,</text>
    <text class="cap" x="0" y="140">not yet a LinguaX slot</text>
    <text class="cap" x="0" y="162">0° / 20° tilt is a hardware hinge</text>
  </g>
</svg>
